<?xml version="1.0" standalone="yes"?>
<svg xmlns="http://www.w3.org/2000/svg" width="500" height="500">
<path style="fill:#010101; stroke:none;" d="M0 0L0 500L500 500L500 0L0 0z"/>
<path style="fill:#fff8e2; stroke:none;" d="M213 148L219 146L213 148z"/>
<path style="fill:#fcd560; stroke:none;" d="M215 146L214 148L215 146z"/>
<path style="fill:#fbbe03; stroke:none;" d="M103 173L103 174C125.08 188.573 161.963 155.639 177.475 183C179.228 186.093 180.502 189.546 181.324 193C182.709 198.824 183.53 205.04 184 211C188.969 211 200.23 213.117 204.272 209.972C206.801 208.005 207.174 202.892 208 200C210.533 191.134 211.634 171.001 218.513 164.728C222.613 160.99 231.768 161.333 237 160.975C249.317 160.134 261.755 158.547 274 157L274 158C257.883 166.362 242.916 193.935 238 211C241.77 210.987 245.242 211.248 247.648 207.852C256.602 195.212 261.887 180.952 272.289 169C280.862 159.151 288.341 158.253 287.985 173C287.904 176.362 287.264 179.654 287 183C298.361 176.977 298.968 164.436 292 155L319 154.286L340 158C337.732 147.369 319.403 149 311 149C280.511 149 250.355 154.916 220 155L220 146C211.637 147.305 210.623 156.417 201 157.718C179.702 160.596 158.285 162.298 137 164.845C126.124 166.146 112.23 166.717 103 173z"/>
<path style="fill:#fde69d; stroke:none;" d="M220 146L221 147L220 146z"/>
<path style="fill:#fcd560; stroke:none;" d="M220.333 147.667L220.667 148.333L220.333 147.667z"/>
<path style="fill:#fde69d; stroke:none;" d="M213 148L214 149L213 148z"/>
<path style="fill:#fff8e2; stroke:none;" d="M291 148L291 149L298 149L291 148z"/>
<path style="fill:#fde69d; stroke:none;" d="M298 148L298 149L308 149L298 148z"/>
<path style="fill:#fcd560; stroke:none;" d="M308 148L309 149L308 148z"/>
<path style="fill:#fde69d; stroke:none;" d="M309 148L309 149L318 149L309 148z"/>
<path style="fill:#fff8e2; stroke:none;" d="M318 148L318 149L322 149L318 148M324 148L325 149L324 148z"/>
<path style="fill:#fde69d; stroke:none;" d="M220 149L220 152L221 152L220 149z"/>
<path style="fill:#fff8e2; stroke:none;" d="M272.667 149.333L273.333 149.667L272.667 149.333M276 149L276 150L279 150L276 149z"/>
<path style="fill:#fde69d; stroke:none;" d="M279 149L279 150L283 150L279 149z"/>
<path style="fill:#fcd560; stroke:none;" d="M283 149L283 150L288 150L283 149M325.667 149.333L326.333 149.667L325.667 149.333z"/>
<path style="fill:#fde69d; stroke:none;" d="M327 149L328 150L327 149z"/>
<path style="fill:#fff8e2; stroke:none;" d="M328.667 149.333L329.333 149.667L328.667 149.333z"/>
<path style="fill:#fde69d; stroke:none;" d="M212 150L213 151L212 150z"/>
<path style="fill:#fff8e2; stroke:none;" d="M263 150L263 151L266 151L263 150z"/>
<path style="fill:#fde69d; stroke:none;" d="M266 150L266 151L269 151L266 150z"/>
<path style="fill:#fcd560; stroke:none;" d="M269 150L269 151L273 151L269 150M330.667 150.333L331.333 150.667L330.667 150.333z"/>
<path style="fill:#fff8e2; stroke:none;" d="M332.667 150.333L333.333 150.667L332.667 150.333z"/>
<path style="fill:#fcd560; stroke:none;" d="M212 151L213 152L212 151z"/>
<path style="fill:#fff8e2; stroke:none;" d="M250 151L251 152L250 151M252 151L252 152L255 152L252 151z"/>
<path style="fill:#fde69d; stroke:none;" d="M255 151L255 152L258 152L255 151z"/>
<path style="fill:#fcd560; stroke:none;" d="M258 151L258 152L261 152L258 151M334 151L335 152L334 151z"/>
<path style="fill:#fde69d; stroke:none;" d="M335 151L336 152L335 151z"/>
<path style="fill:#fff8e2; stroke:none;" d="M336 151L337 152L336 151M211 152L212 153L211 152M220.333 152.667L220.667 153.333L220.333 152.667M238 152L238 153L244 153L238 152z"/>
<path style="fill:#fde69d; stroke:none;" d="M244 152L244 153L247 153L244 152z"/>
<path style="fill:#fcd560; stroke:none;" d="M247 152L247 153L250 153L247 152M337 152L338 153L337 152z"/>
<path style="fill:#fff8e2; stroke:none;" d="M338 152L339 153L338 152z"/>
<path style="fill:#fcd560; stroke:none;" d="M211 153L212 154L211 153z"/>
<path style="fill:#fff8e2; stroke:none;" d="M228.667 153.333L229.333 153.667L228.667 153.333M231 153L231 154L234 154L231 153z"/>
<path style="fill:#fde69d; stroke:none;" d="M234.667 153.333L235.333 153.667L234.667 153.333z"/>
<path style="fill:#fcd560; stroke:none;" d="M236 153L236 154L240 154L236 153z"/>
<path style="fill:#fff8e2; stroke:none;" d="M339 153L341 155L339 153M210 154L211 155L210 154z"/>
<path style="fill:#fcd560; stroke:none;" d="M220 154L221 155L220 154z"/>
<path style="fill:#fde69d; stroke:none;" d="M221 154L221 155L226 155L221 154z"/>
<path style="fill:#fcd560; stroke:none;" d="M226 154L226 155L229 155L226 154M306 154L306 155L321 155L306 154M339 154L340 155L339 154M210 155L211 156L210 155M292 157L295 156L292 157z"/>
<path style="fill:#fde69d; stroke:none;" d="M295 155L295 156L298 156L295 155z"/>
<path style="fill:#fff8e2; stroke:none;" d="M298 155L298 156L302 156L298 155M323.667 155.333L324.333 155.667L323.667 155.333z"/>
<path style="fill:#fde69d; stroke:none;" d="M325 155L326 156L325 155z"/>
<path style="fill:#fcd560; stroke:none;" d="M326 155L327 156L326 155z"/>
<path style="fill:#fde69d; stroke:none;" d="M340 155L341 156L340 155z"/>
<path style="fill:#fff8e2; stroke:none;" d="M204.667 156.333L205.333 156.667L204.667 156.333z"/>
<path style="fill:#fde69d; stroke:none;" d="M206 156L207 157L206 156z"/>
<path style="fill:#fcd560; stroke:none;" d="M207.667 156.333L208.333 156.667L207.667 156.333z"/>
<path style="fill:#fff8e2; stroke:none;" d="M293 156L294 157L293 156M328 156L329 157L328 156z"/>
<path style="fill:#fcd560; stroke:none;" d="M329 156L330 157L329 156M340 156L341 157L340 156z"/>
<path style="fill:#fff8e2; stroke:none;" d="M196.667 157.333L197.333 157.667L196.667 157.333z"/>
<path style="fill:#fde69d; stroke:none;" d="M198.667 157.333L199.333 157.667L198.667 157.333z"/>
<path style="fill:#fcd560; stroke:none;" d="M200 157L200 158L203 158L200 157M270 157L270 158L274 158L270 157z"/>
<path style="fill:#fff8e2; stroke:none;" d="M294 157L295 158L294 157M330 157L331 158L330 157z"/>
<path style="fill:#fcd560; stroke:none;" d="M331 157L332 158L331 157z"/>
<path style="fill:#fff8e2; stroke:none;" d="M340 157L341 158L340 157M188.667 158.333L189.333 158.667L188.667 158.333z"/>
<path style="fill:#fde69d; stroke:none;" d="M190.667 158.333L191.333 158.667L190.667 158.333z"/>
<path style="fill:#fcd560; stroke:none;" d="M192 158L192 159L195 159L192 158M260 158L260 159L263 159L260 158z"/>
<path style="fill:#fde69d; stroke:none;" d="M263.667 158.333L264.333 158.667L263.667 158.333z"/>
<path style="fill:#fff8e2; stroke:none;" d="M265 158L265 159L268 159L265 158M271 158L272 159L271 158M295 158L296 159L295 158M332 158L333 159L332 158z"/>
<path style="fill:#fcd560; stroke:none;" d="M333 158L334 159L333 158M337 158L338 159L337 158z"/>
<path style="fill:#fde69d; stroke:none;" d="M338 158L339 159L338 158z"/>
<path style="fill:#fff8e2; stroke:none;" d="M339 158L340 159L339 158M179 159L179 160L182 160L179 159z"/>
<path style="fill:#fde69d; stroke:none;" d="M182.667 159.333L183.333 159.667L182.667 159.333z"/>
<path style="fill:#fcd560; stroke:none;" d="M184.667 159.333L185.333 159.667L184.667 159.333M250 159L250 160L253 160L250 159z"/>
<path style="fill:#fde69d; stroke:none;" d="M253 159L253 160L256 160L253 159z"/>
<path style="fill:#fff8e2; stroke:none;" d="M256.667 159.333L257.333 159.667L256.667 159.333M270 159L271 160L270 159z"/>
<path style="fill:#fcd560; stroke:none;" d="M282 159L283 160L282 159z"/>
<path style="fill:#fde69d; stroke:none;" d="M283 159L284 160L283 159z"/>
<path style="fill:#fcd560; stroke:none;" d="M284 159L285 160L284 159M295 159L296 160L295 159z"/>
<path style="fill:#fff8e2; stroke:none;" d="M336 159L337 160L336 159M171.667 160.333L172.333 160.667L171.667 160.333z"/>
<path style="fill:#fde69d; stroke:none;" d="M173.667 160.333L174.333 160.667L173.667 160.333z"/>
<path style="fill:#fcd560; stroke:none;" d="M175 160L175 161L178 161L175 160M241 160L241 161L244 161L241 160z"/>
<path style="fill:#fde69d; stroke:none;" d="M244.667 160.333L245.333 160.667L244.667 160.333z"/>
<path style="fill:#fff8e2; stroke:none;" d="M246.667 160.333L247.333 160.667L246.667 160.333z"/>
<path style="fill:#fde69d; stroke:none;" d="M269 160L270 161L269 160z"/>
<path style="fill:#fcd560; stroke:none;" d="M280 160L281 161L280 160z"/>
<path style="fill:#fff8e2; stroke:none;" d="M281 160L282 161L281 160z"/>
<path style="fill:#fde69d; stroke:none;" d="M285 160L286 161L285 160M296 160L297 161L296 160z"/>
<path style="fill:#fff8e2; stroke:none;" d="M163 161L163 162L167 162L163 161z"/>
<path style="fill:#fde69d; stroke:none;" d="M167 161L168 162L167 161z"/>
<path style="fill:#fcd560; stroke:none;" d="M168.667 161.333L169.333 161.667L168.667 161.333M231 161L231 162L234 162L231 161z"/>
<path style="fill:#fde69d; stroke:none;" d="M234.667 161.333L235.333 161.667L234.667 161.333z"/>
<path style="fill:#fff8e2; stroke:none;" d="M236 161L236 162L239 162L236 161z"/>
<path style="fill:#fde69d; stroke:none;" d="M268 161L269 162L268 161M279 161L280 162L279 161z"/>
<path style="fill:#fcd560; stroke:none;" d="M286 161L287 162L286 161M296 161L297 162L296 161z"/>
<path style="fill:#fff8e2; stroke:none;" d="M158.667 162.333L159.333 162.667L158.667 162.333z"/>
<path style="fill:#fde69d; stroke:none;" d="M160.667 162.333L161.333 162.667L160.667 162.333z"/>
<path style="fill:#fcd560; stroke:none;" d="M162.667 162.333L163.333 162.667L162.667 162.333M223.667 162.333L224.333 162.667L223.667 162.333z"/>
<path style="fill:#fde69d; stroke:none;" d="M225 162L225 163L228 163L225 162z"/>
<path style="fill:#fff8e2; stroke:none;" d="M228.667 162.333L229.333 162.667L228.667 162.333z"/>
<path style="fill:#fde69d; stroke:none;" d="M267 162L268 163L267 162M278 162L279 163L278 162z"/>
<path style="fill:#fff8e2; stroke:none;" d="M286 162L287 163L286 162M297 162L298 163L297 162M141 163L141 164L144 164L141 163z"/>
<path style="fill:#fde69d; stroke:none;" d="M144 163L144 164L149 164L144 163z"/>
<path style="fill:#fcd560; stroke:none;" d="M149 163L149 164L154 164L149 163M219 163L220 164L219 163z"/>
<path style="fill:#fde69d; stroke:none;" d="M220 163L221 164L220 163z"/>
<path style="fill:#fff8e2; stroke:none;" d="M221 163L222 164L221 163z"/>
<path style="fill:#fde69d; stroke:none;" d="M266 163L267 164L266 163z"/>
<path style="fill:#fff8e2; stroke:none;" d="M277 163L278 164L277 163z"/>
<path style="fill:#fcd560; stroke:none;" d="M287 163L288 164L287 163z"/>
<path style="fill:#fde69d; stroke:none;" d="M297.333 163.667L297.667 164.333L297.333 163.667z"/>
<path style="fill:#fff8e2; stroke:none;" d="M133.667 164.333L134.333 164.667L133.667 164.333z"/>
<path style="fill:#fde69d; stroke:none;" d="M135.667 164.333L136.333 164.667L135.667 164.333z"/>
<path style="fill:#fcd560; stroke:none;" d="M137 164L137 165L140 165L137 164M217 164L218 165L217 164z"/>
<path style="fill:#fde69d; stroke:none;" d="M265 164L266 165L265 164z"/>
<path style="fill:#fff8e2; stroke:none;" d="M276 164L277 165L276 164z"/>
<path style="fill:#fde69d; stroke:none;" d="M287 164L288 165L287 164z"/>
<path style="fill:#fff8e2; stroke:none;" d="M127 165L128 166L127 165z"/>
<path style="fill:#fde69d; stroke:none;" d="M128.667 165.333L129.333 165.667L128.667 165.333z"/>
<path style="fill:#fcd560; stroke:none;" d="M130.667 165.333L131.333 165.667L130.667 165.333M199.667 165.333L200.333 165.667L199.667 165.333z"/>
<path style="fill:#fde69d; stroke:none;" d="M201.667 165.333L202.333 165.667L201.667 165.333z"/>
<path style="fill:#fff8e2; stroke:none;" d="M203 165L204 166L203 165z"/>
<path style="fill:#fde69d; stroke:none;" d="M204 165L204 166L207 166L204 165M217 165L218 166L217 165z"/>
<path style="fill:#fff8e2; stroke:none;" d="M264 165L265 166L264 165z"/>
<path style="fill:#fde69d; stroke:none;" d="M275 165L276 166L275 165z"/>
<path style="fill:#fff8e2; stroke:none;" d="M287.333 165.667L287.667 166.333L287.333 165.667z"/>
<path style="fill:#fcd560; stroke:none;" d="M297.333 165.667L297.667 166.333L297.333 165.667z"/>
<path style="fill:#fff8e2; stroke:none;" d="M121 166L122 167L121 166z"/>
<path style="fill:#fde69d; stroke:none;" d="M122.667 166.333L123.333 166.667L122.667 166.333z"/>
<path style="fill:#fcd560; stroke:none;" d="M124.667 166.333L125.333 166.667L124.667 166.333M194.667 166.333L195.333 166.667L194.667 166.333z"/>
<path style="fill:#fde69d; stroke:none;" d="M196 166L197 167L196 166z"/>
<path style="fill:#fff8e2; stroke:none;" d="M197 166L198 167L197 166z"/>
<path style="fill:#010101; stroke:none;" d="M182 169C187.186 180.136 194.322 187.006 196 200L197 200L206 166L182 169z"/>
<path style="fill:#fff8e2; stroke:none;" d="M206 166L207 167L206 166M217 166L218 167L217 166M263 166L262 168L263 166z"/>
<path style="fill:#fde69d; stroke:none;" d="M274 166L275 167L274 166z"/>
<path style="fill:#fff8e2; stroke:none;" d="M116 167L117 168L116 167z"/>
<path style="fill:#fde69d; stroke:none;" d="M117 167L118 168L117 167z"/>
<path style="fill:#fcd560; stroke:none;" d="M118.667 167.333L119.333 167.667L118.667 167.333M186.667 167.333L187.333 167.667L186.667 167.333z"/>
<path style="fill:#fde69d; stroke:none;" d="M188.667 167.333L189.333 167.667L188.667 167.333z"/>
<path style="fill:#fff8e2; stroke:none;" d="M190.667 167.333L191.333 167.667L190.667 167.333z"/>
<path style="fill:#fde69d; stroke:none;" d="M206 167L207 168L206 167z"/>
<path style="fill:#fcd560; stroke:none;" d="M216 167L217 168L216 167M263 167L264 168L263 167M273 167L274 168L273 167z"/>
<path style="fill:#fde69d; stroke:none;" d="M297.333 167.667L297.667 168.333L297.333 167.667z"/>
<path style="fill:#fff8e2; stroke:none;" d="M111 168L112 169L111 168z"/>
<path style="fill:#fde69d; stroke:none;" d="M112 168L113 169L112 168z"/>
<path style="fill:#fcd560; stroke:none;" d="M113.667 168.333L114.333 168.667L113.667 168.333M182 168L183 169L182 168z"/>
<path style="fill:#fde69d; stroke:none;" d="M183 168L184 169L183 168z"/>
<path style="fill:#fff8e2; stroke:none;" d="M184 168L185 169L184 168z"/>
<path style="fill:#fcd560; stroke:none;" d="M206.333 168.667L206.667 169.333L206.333 168.667z"/>
<path style="fill:#fde69d; stroke:none;" d="M216 168L217 169L216 168z"/>
<path style="fill:#fcd560; stroke:none;" d="M262 168L263 169L262 168M272 168L271 170L272 168z"/>
<path style="fill:#fff8e2; stroke:none;" d="M107 169L108 170L107 169z"/>
<path style="fill:#fde69d; stroke:none;" d="M108 169L109 170L108 169z"/>
<path style="fill:#fcd560; stroke:none;" d="M109 169L110 170L109 169M180 169L181 170L180 169z"/>
<path style="fill:#fff8e2; stroke:none;" d="M181.333 169.667L181.667 170.333L181.333 169.667M216 169L217 170L216 169z"/>
<path style="fill:#fde69d; stroke:none;" d="M261 169L262 170L261 169z"/>
<path style="fill:#fff8e2; stroke:none;" d="M272 169L273 170L272 169M297 169L298 170L297 169M104 170L102 173L104 170z"/>
<path style="fill:#fde69d; stroke:none;" d="M105 170L106 171L105 170z"/>
<path style="fill:#fcd560; stroke:none;" d="M106 170L107 171L106 170z"/>
<path style="fill:#fff8e2; stroke:none;" d="M205 170L206 171L205 170M260 170L261 171L260 170M271 170L272 171L271 170z"/>
<path style="fill:#fcd560; stroke:none;" d="M104 171L105 172L104 171M160 171L160 172L166 172L160 171z"/>
<path style="fill:#fde69d; stroke:none;" d="M182 171L183 172L182 171M205 171L206 172L205 171z"/>
<path style="fill:#fcd560; stroke:none;" d="M215 171L216 172L215 171z"/>
<path style="fill:#fff8e2; stroke:none;" d="M259 171L258 173L259 171M270 171L271 172L270 171z"/>
<path style="fill:#fcd560; stroke:none;" d="M296 171L297 172L296 171M103 172L104 173L103 172M155 172L156 173L155 172z"/>
<path style="fill:#fde69d; stroke:none;" d="M156.667 172.333L157.333 172.667L156.667 172.333z"/>
<path style="fill:#fff8e2; stroke:none;" d="M158 172L159 173L158 172M167 172L168 173L167 172z"/>
<path style="fill:#fcd560; stroke:none;" d="M168 172L169 173L168 172z"/>
<path style="fill:#fde69d; stroke:none;" d="M183 172L184 173L183 172z"/>
<path style="fill:#fcd560; stroke:none;" d="M205.333 172.667L205.667 173.333L205.333 172.667z"/>
<path style="fill:#fde69d; stroke:none;" d="M215 172L216 173L215 172z"/>
<path style="fill:#fcd560; stroke:none;" d="M259 172L260 173L259 172z"/>
<path style="fill:#fde69d; stroke:none;" d="M269 172L270 173L269 172z"/>
<path style="fill:#fff8e2; stroke:none;" d="M296 172L297 173L296 172z"/>
<path style="fill:#fde69d; stroke:none;" d="M102 173L103 174L102 173z"/>
<path style="fill:#fcd560; stroke:none;" d="M148 173L148 174L151 174L148 173z"/>
<path style="fill:#fde69d; stroke:none;" d="M151 173L152 174L151 173z"/>
<path style="fill:#fff8e2; stroke:none;" d="M152.667 173.333L153.333 173.667L152.667 173.333M169 173L170 174L169 173z"/>
<path style="fill:#fde69d; stroke:none;" d="M184 173L185 174L184 173z"/>
<path style="fill:#fff8e2; stroke:none;" d="M215 173L216 174L215 173z"/>
<path style="fill:#fcd560; stroke:none;" d="M258 173L259 174L258 173M268 173L267 175L268 173M295 173L296 174L295 173z"/>
<path style="fill:#fff8e2; stroke:none;" d="M102 174L105 177L102 174z"/>
<path style="fill:#fcd560; stroke:none;" d="M103 174L104 175L103 174M141.667 174.333L142.333 174.667L141.667 174.333z"/>
<path style="fill:#fde69d; stroke:none;" d="M143.667 174.333L144.333 174.667L143.667 174.333z"/>
<path style="fill:#fff8e2; stroke:none;" d="M145.667 174.333L146.333 174.667L145.667 174.333M170 174L173 177L170 174z"/>
<path style="fill:#fcd560; stroke:none;" d="M171 174L172 175L171 174z"/>
<path style="fill:#fde69d; stroke:none;" d="M185 174L186 175L185 174z"/>
<path style="fill:#fff8e2; stroke:none;" d="M204 174L205 175L204 174M257 174L258 175L257 174M268 174L269 175L268 174M287.333 174.667L287.667 175.333L287.333 174.667z"/>
<path style="fill:#fde69d; stroke:none;" d="M295 174L296 175L295 174z"/>
<path style="fill:#fcd560; stroke:none;" d="M104 175L105 176L104 175M133.667 175.333L134.333 175.667L133.667 175.333z"/>
<path style="fill:#fde69d; stroke:none;" d="M135.667 175.333L136.333 175.667L135.667 175.333z"/>
<path style="fill:#fff8e2; stroke:none;" d="M137.667 175.333L138.333 175.667L137.667 175.333z"/>
<path style="fill:#fcd560; stroke:none;" d="M172 175L173 176L172 175z"/>
<path style="fill:#fff8e2; stroke:none;" d="M186 175L187 176L186 175z"/>
<path style="fill:#fde69d; stroke:none;" d="M204 175L205 176L204 175z"/>
<path style="fill:#fcd560; stroke:none;" d="M214 175L215 176L214 175z"/>
<path style="fill:#fff8e2; stroke:none;" d="M256 175L257 176L256 175M267 175L268 176L267 175z"/>
<path style="fill:#fde69d; stroke:none;" d="M105 176L106 177L105 176z"/>
<path style="fill:#fcd560; stroke:none;" d="M106 176L107 177L106 176M123 176L123 177L126 177L123 176z"/>
<path style="fill:#fde69d; stroke:none;" d="M126 176L126 177L129 177L126 176z"/>
<path style="fill:#fff8e2; stroke:none;" d="M129 176L129 177L133 177L129 176M187 176L189 178L187 176z"/>
<path style="fill:#fcd560; stroke:none;" d="M204 176L205 177L204 176z"/>
<path style="fill:#fde69d; stroke:none;" d="M214 176L215 177L214 176z"/>
<path style="fill:#fcd560; stroke:none;" d="M256 176L257 177L256 176z"/>
<path style="fill:#fff8e2; stroke:none;" d="M266 176L267 177L266 176z"/>
<path style="fill:#fde69d; stroke:none;" d="M287.333 176.667L287.667 177.333L287.333 176.667z"/>
<path style="fill:#fff8e2; stroke:none;" d="M294 176L295 177L294 176M108 177L108 178L111 178L108 177z"/>
<path style="fill:#fde69d; stroke:none;" d="M111 177L111 178L118 178L111 177z"/>
<path style="fill:#fff8e2; stroke:none;" d="M118 177L118 178L121 178L118 177M173 177L174 178L173 177z"/>
<path style="fill:#fcd560; stroke:none;" d="M187 177L188 178L187 177z"/>
<path style="fill:#fff8e2; stroke:none;" d="M214 177L215 178L214 177z"/>
<path style="fill:#fde69d; stroke:none;" d="M255 177L256 178L255 177M265 177L266 178L265 177z"/>
<path style="fill:#fcd560; stroke:none;" d="M293 177L294 178L293 177z"/>
<path style="fill:#fff8e2; stroke:none;" d="M174 178L175 179L174 178z"/>
<path style="fill:#fde69d; stroke:none;" d="M188 178L189 179L188 178z"/>
<path style="fill:#fff8e2; stroke:none;" d="M203 178L204 179L203 178M254 178L255 179L254 178z"/>
<path style="fill:#fcd560; stroke:none;" d="M264 178L265 179L264 178M287 178L288 179L287 178z"/>
<path style="fill:#fff8e2; stroke:none;" d="M293 178L294 179L293 178z"/>
<path style="fill:#fcd560; stroke:none;" d="M175 179L176 180L175 179z"/>
<path style="fill:#fff8e2; stroke:none;" d="M189 179L190 180L189 179z"/>
<path style="fill:#fde69d; stroke:none;" d="M203 179L204 180L203 179z"/>
<path style="fill:#fcd560; stroke:none;" d="M213 179L214 180L213 179M254 179L255 180L254 179z"/>
<path style="fill:#fff8e2; stroke:none;" d="M264 179L265 180L264 179M292 179L293 180L292 179M175 180L176 181L175 180z"/>
<path style="fill:#fcd560; stroke:none;" d="M189 180L190 181L189 180M203 180L204 181L203 180z"/>
<path style="fill:#fde69d; stroke:none;" d="M213 180L214 181L213 180M253 180L254 181L253 180M263 180L264 181L263 180z"/>
<path style="fill:#fff8e2; stroke:none;" d="M286.333 180.667L286.667 181.333L286.333 180.667z"/>
<path style="fill:#fde69d; stroke:none;" d="M291 180L292 181L291 180z"/>
<path style="fill:#fff8e2; stroke:none;" d="M176 181L177 182L176 181M190 181L191 182L190 181M202 181L203 182L202 181M213 181L214 182L213 181M252 181L253 182L252 181z"/>
<path style="fill:#fcd560; stroke:none;" d="M262 181L263 182L262 181z"/>
<path style="fill:#fde69d; stroke:none;" d="M290 181L291 182L290 181z"/>
<path style="fill:#fcd560; stroke:none;" d="M177 182L178 183L177 182M190 182L191 183L190 182z"/>
<path style="fill:#fde69d; stroke:none;" d="M202 182L203 183L202 182z"/>
<path style="fill:#fcd560; stroke:none;" d="M212.333 182.667L212.667 183.333L212.333 182.667M252 182L253 183L252 182z"/>
<path style="fill:#fff8e2; stroke:none;" d="M262 182L263 183L262 182z"/>
<path style="fill:#fde69d; stroke:none;" d="M286 182L287 183L286 182z"/>
<path style="fill:#fcd560; stroke:none;" d="M288 182L289 183L288 182z"/>
<path style="fill:#fff8e2; stroke:none;" d="M289 182L290 183L289 182z"/>
<path style="fill:#fde69d; stroke:none;" d="M177 183L178 184L177 183z"/>
<path style="fill:#fff8e2; stroke:none;" d="M191 183L192 184L191 183z"/>
<path style="fill:#fcd560; stroke:none;" d="M202 183L203 184L202 183z"/>
<path style="fill:#fff8e2; stroke:none;" d="M251 183L252 184L251 183z"/>
<path style="fill:#fde69d; stroke:none;" d="M261 183L262 184L261 183z"/>
<path style="fill:#fff8e2; stroke:none;" d="M286.667 183.333L287.333 183.667L286.667 183.333z"/>
<path style="fill:#fcd560; stroke:none;" d="M178 184L179 185L178 184M191 184L192 185L191 184z"/>
<path style="fill:#fff8e2; stroke:none;" d="M212.333 184.667L212.667 185.333L212.333 184.667M250 184L251 185L250 184z"/>
<path style="fill:#fcd560; stroke:none;" d="M260 184L261 185L260 184z"/>
<path style="fill:#fde69d; stroke:none;" d="M178 185L179 186L178 185z"/>
<path style="fill:#fff8e2; stroke:none;" d="M192 185L193 186L192 185M201 185L202 186L201 185z"/>
<path style="fill:#fde69d; stroke:none;" d="M250 185L251 186L250 185z"/>
<path style="fill:#fff8e2; stroke:none;" d="M260 185L261 186L260 185M178 186L179 187L178 186z"/>
<path style="fill:#fde69d; stroke:none;" d="M192 186L193 187L192 186M201 186L202 187L201 186z"/>
<path style="fill:#fcd560; stroke:none;" d="M211 186L212 187L211 186z"/>
<path style="fill:#fff8e2; stroke:none;" d="M249 186L250 187L249 186z"/>
<path style="fill:#fde69d; stroke:none;" d="M259 186L260 187L259 186M179 187L180 188L179 187z"/>
<path style="fill:#fcd560; stroke:none;" d="M201 187L202 188L201 187z"/>
<path style="fill:#fde69d; stroke:none;" d="M211 187L212 188L211 187z"/>
<path style="fill:#fcd560; stroke:none;" d="M249 187L250 188L249 187M258 187L259 188L258 187z"/>
<path style="fill:#fff8e2; stroke:none;" d="M179 188L180 189L179 188M193 188L194 189L193 188M200 188L201 189L200 188M211 188L212 189L211 188M248 188L247 190L248 188M258 188L259 189L258 188z"/>
<path style="fill:#fcd560; stroke:none;" d="M180 189L181 190L180 189z"/>
<path style="fill:#fde69d; stroke:none;" d="M193 189L194 190L193 189M200 189L201 190L200 189z"/>
<path style="fill:#fcd560; stroke:none;" d="M248 189L249 190L248 189M257 189L258 190L257 189z"/>
<path style="fill:#fde69d; stroke:none;" d="M180 190L181 191L180 190z"/>
<path style="fill:#fcd560; stroke:none;" d="M193 190L194 191L193 190M200 190L201 191L200 190M210 190L211 191L210 190z"/>
<path style="fill:#fde69d; stroke:none;" d="M247 190L248 191L247 190z"/>
<path style="fill:#fff8e2; stroke:none;" d="M257 190L258 191L257 190M180.333 191.667L180.667 192.333L180.333 191.667M194 191L195 192L194 191M199 191L200 192L199 191z"/>
<path style="fill:#fde69d; stroke:none;" d="M210 191L211 192L210 191z"/>
<path style="fill:#fff8e2; stroke:none;" d="M246 191L247 192L246 191z"/>
<path style="fill:#fde69d; stroke:none;" d="M256 191L257 192L256 191M194 192L195 193L194 192M199 192L200 193L199 192z"/>
<path style="fill:#fff8e2; stroke:none;" d="M210 192L211 193L210 192z"/>
<path style="fill:#fcd560; stroke:none;" d="M246 192L247 193L246 192z"/>
<path style="fill:#fff8e2; stroke:none;" d="M256 192L257 193L256 192z"/>
<path style="fill:#fcd560; stroke:none;" d="M181.333 193.667L181.667 194.333L181.333 193.667M194.333 193.667L194.667 194.333L194.333 193.667M199 193L200 194L199 193z"/>
<path style="fill:#fff8e2; stroke:none;" d="M245 193L246 194L245 193z"/>
<path style="fill:#fde69d; stroke:none;" d="M255 193L256 194L255 193z"/>
<path style="fill:#fff8e2; stroke:none;" d="M198 194L199 195L198 194z"/>
<path style="fill:#fcd560; stroke:none;" d="M209 194L210 195L209 194M245 194L246 195L245 194M254 194L255 195L254 194z"/>
<path style="fill:#fde69d; stroke:none;" d="M181.333 195.667L181.667 196.333L181.333 195.667M198 195L199 196L198 195M209 195L210 196L209 195z"/>
<path style="fill:#fff8e2; stroke:none;" d="M244 195L245 196L244 195M254 195L255 196L254 195M195 196L196 197L195 196z"/>
<path style="fill:#fcd560; stroke:none;" d="M198 196L199 197L198 196z"/>
<path style="fill:#fff8e2; stroke:none;" d="M209 196L210 197L209 196z"/>
<path style="fill:#fcd560; stroke:none;" d="M244 196L245 197L244 196M253 196L254 197L253 196z"/>
<path style="fill:#fff8e2; stroke:none;" d="M181 197L182 198L181 197z"/>
<path style="fill:#fde69d; stroke:none;" d="M195.333 197.667L195.667 198.333L195.333 197.667z"/>
<path style="fill:#fff8e2; stroke:none;" d="M197 197L198 198L197 197M243 197L244 198L243 197M253 197L254 198L253 197z"/>
<path style="fill:#fde69d; stroke:none;" d="M197 198L198 199L197 198z"/>
<path style="fill:#fcd560; stroke:none;" d="M208 198L209 199L208 198M243 198L244 199L243 198M252 198L253 199L252 198M182.333 199.667L182.667 200.333L182.333 199.667M195 199L196 200L195 199M197 199L198 200L197 199z"/>
<path style="fill:#fde69d; stroke:none;" d="M208 199L209 200L208 199z"/>
<path style="fill:#fff8e2; stroke:none;" d="M242 199L243 200L242 199M252 199L253 200L252 199M196 200L197 201L196 200M208 200L209 201L208 200z"/>
<path style="fill:#fcd560; stroke:none;" d="M242 200L243 201L242 200M251 200L252 201L251 200z"/>
<path style="fill:#fde69d; stroke:none;" d="M182 201L183 202L182 201z"/>
<path style="fill:#fcd560; stroke:none;" d="M196 201L197 202L196 201M207.333 201.667L207.667 202.333L207.333 201.667z"/>
<path style="fill:#fff8e2; stroke:none;" d="M241 201L242 202L241 201M251 201L252 202L251 201M182 202L182 205L183 205L182 202z"/>
<path style="fill:#fcd560; stroke:none;" d="M241 202L242 203L241 202z"/>
<path style="fill:#fde69d; stroke:none;" d="M250 202L251 203L250 202M207 203L208 204L207 203z"/>
<path style="fill:#fff8e2; stroke:none;" d="M240 203L241 204L240 203M250 203L251 204L250 203M207 204L208 205L207 204z"/>
<path style="fill:#fcd560; stroke:none;" d="M240 204L241 205L240 204z"/>
<path style="fill:#fde69d; stroke:none;" d="M249 204L250 205L249 204z"/>
<path style="fill:#fcd560; stroke:none;" d="M206 205L207 206L206 205z"/>
<path style="fill:#fff8e2; stroke:none;" d="M239 205L240 206L239 205M249 205L250 206L249 205z"/>
<path style="fill:#fcd560; stroke:none;" d="M183 206L183 209L184 209L183 206z"/>
<path style="fill:#fde69d; stroke:none;" d="M206 206L207 207L206 206z"/>
<path style="fill:#fcd560; stroke:none;" d="M239 206L240 207L239 206M248 206L249 207L248 206z"/>
<path style="fill:#fff8e2; stroke:none;" d="M206.333 207.667L206.667 208.333L206.333 207.667M238 207L239 208L238 207M248 207L249 208L248 207z"/>
<path style="fill:#fcd560; stroke:none;" d="M238 208L239 209L238 208M247 208L248 209L247 208z"/>
<path style="fill:#fde69d; stroke:none;" d="M183.333 209.667L183.667 210.333L183.333 209.667z"/>
<path style="fill:#fcd560; stroke:none;" d="M205 209L206 210L205 209z"/>
<path style="fill:#fff8e2; stroke:none;" d="M237 209L238 210L237 209M247 209L248 210L247 209z"/>
<path style="fill:#fde69d; stroke:none;" d="M205 210L206 211L205 210z"/>
<path style="fill:#fcd560; stroke:none;" d="M237 210L238 211L237 210M246 210L247 211L246 210z"/>
<path style="fill:#fff8e2; stroke:none;" d="M106 216L107 221L108 221L106 216M117 216L118 217L117 216M165 216L163 235C166.594 231.859 165.717 220.592 165 216M184 216L185 234L186 234L184 216M202 216L203 234L204 234L202 216M226 216L227 237L228 237C228 230.763 229.878 221.119 226 216M240 216L241 217L240 216M334 216L333 243L334 243L334 216M85 217L85 221L86 221L85 217z"/>
<path style="fill:#fcd560; stroke:none;" d="M86 217L86 218L107 218L86 217z"/>
<path style="fill:#fde69d; stroke:none;" d="M116 217L116 243L117 243L116 217z"/>
<path style="fill:#fcd560; stroke:none;" d="M117 217L117 218L134 218L134 220L120 220L120 221C125.129 221 133.057 222.855 135 217L117 217z"/>
<path style="fill:#fde69d; stroke:none;" d="M146 217L147 218L146 217z"/>
<path style="fill:#fcd560; stroke:none;" d="M147 217L146 243L147 243C147 235.949 144.639 223.756 149 218L147 217z"/>
<path style="fill:#fde69d; stroke:none;" d="M149 217L151 219L149 217z"/>
<path style="fill:#fcd560; stroke:none;" d="M165 217L165 218L168 218L165 217z"/>
<path style="fill:#fde69d; stroke:none;" d="M168 217L168 243L169 243L168 217M181 217L182 218L181 217z"/>
<path style="fill:#fcd560; stroke:none;" d="M181 234L182 234C182 228.926 180.283 221.058 185 218C178.924 216.635 181 230.209 181 234z"/>
<path style="fill:#fde69d; stroke:none;" d="M199 217L199 232L200 232L199 217z"/>
<path style="fill:#fcd560; stroke:none;" d="M200 217L200 218L203 218L200 217M214 217C215.56 221.7 219.654 220.997 224 221L224 220L215 220L215 218L227 218L214 217M240 217L240 218L243 218L243 243L244 243L244 217L240 217z"/>
<path style="fill:#fff8e2; stroke:none;" d="M278 217L279 218L278 217z"/>
<path style="fill:#fde69d; stroke:none;" d="M279 217L280 218L279 217z"/>
<path style="fill:#fcd560; stroke:none;" d="M280 217L281 218L280 217z"/>
<path style="fill:#fbbe03; stroke:none;" d="M293 240L293 239C288.63 238.448 284.24 240.952 280.005 238.82C271.977 234.778 272.262 223.87 281.004 220.758C285.06 219.314 288.935 222.283 293 222C276.119 202.672 257.713 244.822 285 242.88C288.011 242.666 290.421 241.445 293 240z"/>
<path style="fill:#fcd560; stroke:none;" d="M286.667 217.333L287.333 217.667L286.667 217.333z"/>
<path style="fill:#fff8e2; stroke:none;" d="M288 217L289 218L288 217M303 217L303 243L304 243L303 217z"/>
<path style="fill:#fcd560; stroke:none;" d="M304 217L304 218L322 218L304 217M334 217L334 218L337 218L337 240L338 240C338 233.914 340.883 219.284 334 217z"/>
<path style="fill:#fde69d; stroke:none;" d="M337 217L338 218L337 217z"/>
<path style="fill:#fff8e2; stroke:none;" d="M360 217L360 243L361 243L360 217z"/>
<path style="fill:#fcd560; stroke:none;" d="M361 217L361 218L364 218L364 240L365 240C365 233.914 367.883 219.284 361 217z"/>
<path style="fill:#fde69d; stroke:none;" d="M364 217L365 218L364 217z"/>
<path style="fill:#fbbe03; stroke:none;" d="M86 218L86 220L95 220L95 243L98 243L98 220L107 220L107 218L86 218M117 218L117 243L135 243L135 240L120 240L120 231L133 231L133 229L120 229L120 220L134 220L134 218L117 218M147 218L147 243L150 243L150 224L151 224C154.226 230.252 161.117 240.782 168 243L168 218L165 218L165 236C159.624 230.382 154.664 220.248 147 218M182 218C182 223.81 180.344 232.702 183.179 237.945C186.541 244.164 196.957 244.644 200.91 238.786C204.601 233.318 203 224.261 203 218L200 218C200 223.133 201.266 230.302 198.821 234.981C196.135 240.121 189.297 241.429 186.179 235.891C183.531 231.188 185 223.238 185 218L182 218M215 218L215 220L224 220C224 224.918 226.054 236.118 220.772 238.918C218.307 240.224 214.687 238.755 212 239C226.104 254.983 227 225.656 227 218L215 218M240 218L240 243L243 243L243 218L240 218z"/>
<path style="fill:#fff8e2; stroke:none;" d="M276 218L277 219L276 218z"/>
<path style="fill:#fcd560; stroke:none;" d="M277 218L278 219L277 218M289 218L290 219L289 218z"/>
<path style="fill:#fde69d; stroke:none;" d="M290 218L291 219L290 218z"/>
<path style="fill:#fbbe03; stroke:none;" d="M304 218L304 243L322 243L322 240L307 240L307 231L320 231L320 229C312.077 229 307.109 229.194 307 220L322 220L322 218L304 218M334 218L334 243L351 243L351 240L337 240L337 218L334 218M361 218L361 243L378 243L378 240L364 240L364 218L361 218z"/>
<path style="fill:#fff8e2; stroke:none;" d="M151 219L152 220L151 219M274 219L272 222L274 219z"/>
<path style="fill:#fcd560; stroke:none;" d="M275 219L276 220L275 219M291 219L293 221L291 219z"/>
<path style="fill:#fff8e2; stroke:none;" d="M292 219L293 220L292 219z"/>
<path style="fill:#fcd560; stroke:none;" d="M86 220L86 221L95 221L86 220M98 220L98 221L107 221L98 220z"/>
<path style="fill:#fde69d; stroke:none;" d="M134 220L135 221L134 220z"/>
<path style="fill:#fff8e2; stroke:none;" d="M152 220L154 222L152 220z"/>
<path style="fill:#fde69d; stroke:none;" d="M214 220L215 221L214 220z"/>
<path style="fill:#fcd560; stroke:none;" d="M274 220L275 221L274 220M280.667 220.333L281.333 220.667L280.667 220.333z"/>
<path style="fill:#fde69d; stroke:none;" d="M282 220L282 221L286 221L282 220z"/>
<path style="fill:#fcd560; stroke:none;" d="M286 220L287 221L286 220z"/>
<path style="fill:#fff8e2; stroke:none;" d="M293.333 220.667L293.667 221.333L293.333 220.667z"/>
<path style="fill:#fcd560; stroke:none;" d="M307 220L307 228L308 228L308 221L322 221L307 220z"/>
<path style="fill:#fde69d; stroke:none;" d="M94 221L94 243L95 243L94 221M98 221L98 243L99 243L98 221M120 221L120 228L121 228L120 221z"/>
<path style="fill:#fcd560; stroke:none;" d="M152 221L153 222L152 221z"/>
<path style="fill:#fde69d; stroke:none;" d="M223 221L223 235L224 235L223 221z"/>
<path style="fill:#fcd560; stroke:none;" d="M273 221L274 222L273 221M278 221L279 222L278 221z"/>
<path style="fill:#fff8e2; stroke:none;" d="M279.667 221.333L280.333 221.667L279.667 221.333M287 221L288 222L287 221z"/>
<path style="fill:#fde69d; stroke:none;" d="M288 221L289 222L288 221z"/>
<path style="fill:#fcd560; stroke:none;" d="M153 222L154 223L153 222M272 222L273 223L272 222z"/>
<path style="fill:#fde69d; stroke:none;" d="M277 222L278 223L277 222z"/>
<path style="fill:#fff8e2; stroke:none;" d="M289 222L290 223L289 222M292 222L293 223L292 222z"/>
<path style="fill:#fde69d; stroke:none;" d="M154 223L155 224L154 223M271 223L272 224L271 223z"/>
<path style="fill:#fff8e2; stroke:none;" d="M276 223L277 224L276 223M290.667 223.333L291.333 223.667L290.667 223.333z"/>
<path style="fill:#fcd560; stroke:none;" d="M150 224L152 226L150 224z"/>
<path style="fill:#fff8e2; stroke:none;" d="M155 224L156 225L155 224z"/>
<path style="fill:#fcd560; stroke:none;" d="M271 224L272 225L271 224z"/>
<path style="fill:#fde69d; stroke:none;" d="M275 224L276 225L275 224z"/>
<path style="fill:#fff8e2; stroke:none;" d="M150 225L150 243L151 243L150 225M156 225L158 227L156 225M270 225L271 226L270 225M275 225L276 226L275 225z"/>
<path style="fill:#fcd560; stroke:none;" d="M156 226L157 227L156 226M270.333 226.667L270.667 227.333L270.333 226.667z"/>
<path style="fill:#fde69d; stroke:none;" d="M274 226L275 227L274 226z"/>
<path style="fill:#fff8e2; stroke:none;" d="M132 227L133 232L134 232L132 227M152 227L153 228L152 227z"/>
<path style="fill:#fcd560; stroke:none;" d="M157 227L158 228L157 227z"/>
<path style="fill:#fff8e2; stroke:none;" d="M274 227L275 228L274 227z"/>
<path style="fill:#fcd560; stroke:none;" d="M120 228L120 229L133 229L120 228z"/>
<path style="fill:#fde69d; stroke:none;" d="M153 228L154 229L153 228M158 228L159 229L158 228z"/>
<path style="fill:#fcd560; stroke:none;" d="M308 228L308 229L320 229L308 228z"/>
<path style="fill:#fde69d; stroke:none;" d="M320 228L320 231L321 231L320 228M154 229L155 230L154 229z"/>
<path style="fill:#fff8e2; stroke:none;" d="M159 229L160 230L159 229z"/>
<path style="fill:#fcd560; stroke:none;" d="M273 229L273 232L274 232L273 229M155 230L157 232L155 230z"/>
<path style="fill:#fff8e2; stroke:none;" d="M160 230L162 232L160 230M274 230L275 231L274 230z"/>
<path style="fill:#fcd560; stroke:none;" d="M120 231L120 232L133 232L120 231z"/>
<path style="fill:#fff8e2; stroke:none;" d="M155 231L156 232L155 231z"/>
<path style="fill:#fcd560; stroke:none;" d="M160 231L161 232L160 231M307 231L307 240L308 240L308 232L320 232L307 231z"/>
<path style="fill:#fff8e2; stroke:none;" d="M320 231L321 232L320 231z"/>
<path style="fill:#fde69d; stroke:none;" d="M120 232L120 240L121 240L120 232z"/>
<path style="fill:#fff8e2; stroke:none;" d="M156 232L157 233L156 232z"/>
<path style="fill:#fcd560; stroke:none;" d="M161 232L162 233L161 232M199 232L199 235L200 235L199 232M270.333 232.667L270.667 233.333L270.333 232.667z"/>
<path style="fill:#fff8e2; stroke:none;" d="M274 232L275 233L274 232z"/>
<path style="fill:#fde69d; stroke:none;" d="M157 233L158 234L157 233M162 233L163 234L162 233M274 233L275 234L274 233M158 234L159 235L158 234M181 234L182 235L181 234M185 234L186 235L185 234M270 234L271 235L270 234z"/>
<path style="fill:#fcd560; stroke:none;" d="M274 234L275 235L274 234M159 235L161 237L159 235z"/>
<path style="fill:#fde69d; stroke:none;" d="M164 235L165 236L164 235z"/>
<path style="fill:#fff8e2; stroke:none;" d="M181.333 235.667L181.667 236.333L181.333 235.667z"/>
<path style="fill:#fcd560; stroke:none;" d="M185 235L186 236L185 235z"/>
<path style="fill:#fff8e2; stroke:none;" d="M198 235L199 236L198 235z"/>
<path style="fill:#fcd560; stroke:none;" d="M202 235L203 236L202 235M223.333 235.667L223.667 236.333L223.333 235.667z"/>
<path style="fill:#fff8e2; stroke:none;" d="M270 235L271 236L270 235M275 235L276 236L275 235M159 236L160 237L159 236M186 236L187 237L186 236z"/>
<path style="fill:#fde69d; stroke:none;" d="M198 236L199 237L198 236M202 236L203 237L202 236M271 236L272 237L271 236z"/>
<path style="fill:#fff8e2; stroke:none;" d="M276 236L277 237L276 236M160 237L161 238L160 237z"/>
<path style="fill:#fcd560; stroke:none;" d="M182 237L183 238L182 237M186 237L187 238L186 237z"/>
<path style="fill:#fff8e2; stroke:none;" d="M197 237L198 238L197 237M202 237L203 238L202 237M212 237L213 238L212 237z"/>
<path style="fill:#fcd560; stroke:none;" d="M213 237L214 238L213 237z"/>
<path style="fill:#fff8e2; stroke:none;" d="M214 237L215 238L214 237M271 237L272 238L271 237M277 237L278 238L277 237M289 237L288 239L289 237z"/>
<path style="fill:#fcd560; stroke:none;" d="M290 237L290 238L293 239L290 237z"/>
<path style="fill:#fff8e2; stroke:none;" d="M292 237L293 238L292 237M161 238L162 239L161 238M182 238L183 239L182 238z"/>
<path style="fill:#fde69d; stroke:none;" d="M187 238L188 239L187 238z"/>
<path style="fill:#fff8e2; stroke:none;" d="M188 238L189 239L188 238M196 238L197 239L196 238z"/>
<path style="fill:#fcd560; stroke:none;" d="M201 238L202 239L201 238z"/>
<path style="fill:#fde69d; stroke:none;" d="M212 238L213 239L212 238z"/>
<path style="fill:#fff8e2; stroke:none;" d="M215 238L216 239L215 238z"/>
<path style="fill:#fde69d; stroke:none;" d="M222 238L223 239L222 238z"/>
<path style="fill:#fcd560; stroke:none;" d="M226 238L227 239L226 238z"/>
<path style="fill:#fff8e2; stroke:none;" d="M272 238L273 239L272 238z"/>
<path style="fill:#fde69d; stroke:none;" d="M278 238L279 239L278 238z"/>
<path style="fill:#fcd560; stroke:none;" d="M289 238L290 239L289 238z"/>
<path style="fill:#fff8e2; stroke:none;" d="M293.333 238.667L293.667 239.333L293.333 238.667M121 239L121 240L136 240L121 239z"/>
<path style="fill:#fde69d; stroke:none;" d="M162 239L163 240L162 239M183 239L184 240L183 239M189 239L190 240L189 239z"/>
<path style="fill:#fff8e2; stroke:none;" d="M190.667 239.333L191.333 239.667L190.667 239.333M193 239L194 240L193 239z"/>
<path style="fill:#fde69d; stroke:none;" d="M194 239L195 240L194 239z"/>
<path style="fill:#fcd560; stroke:none;" d="M195 239L196 240L195 239z"/>
<path style="fill:#fff8e2; stroke:none;" d="M201 239L202 240L201 239M211 239L212 240L211 239z"/>
<path style="fill:#fcd560; stroke:none;" d="M216 239L217 240L216 239z"/>
<path style="fill:#fff8e2; stroke:none;" d="M217 239L218 240L217 239M220 239L221 240L220 239z"/>
<path style="fill:#fde69d; stroke:none;" d="M221 239L222 240L221 239M226 239L227 240L226 239z"/>
<path style="fill:#fff8e2; stroke:none;" d="M273 239L274 240L273 239z"/>
<path style="fill:#fde69d; stroke:none;" d="M280 239L281 240L280 239z"/>
<path style="fill:#fff8e2; stroke:none;" d="M281.667 239.333L282.333 239.667L281.667 239.333M284.667 239.333L285.333 239.667L284.667 239.333z"/>
<path style="fill:#fde69d; stroke:none;" d="M286 239L287 240L286 239z"/>
<path style="fill:#fcd560; stroke:none;" d="M287 239L288 240L287 239z"/>
<path style="fill:#fff8e2; stroke:none;" d="M308 239L308 240L323 240L308 239M338 239L338 240L352 240L338 239M365 239L365 240L379 240L365 239z"/>
<path style="fill:#fde69d; stroke:none;" d="M135 240L135 243L136 243L135 240z"/>
<path style="fill:#fcd560; stroke:none;" d="M163 240L165 242L163 240M184 240L185 241L184 240z"/>
<path style="fill:#fff8e2; stroke:none;" d="M200 240L201 241L200 240z"/>
<path style="fill:#fcd560; stroke:none;" d="M212 240L213 241L212 240M225 240L224 242L225 240z"/>
<path style="fill:#fff8e2; stroke:none;" d="M274 240L275 241L274 240M292 240L293 241L292 240z"/>
<path style="fill:#fcd560; stroke:none;" d="M322 240L322 243L323 243L322 240z"/>
<path style="fill:#fde69d; stroke:none;" d="M351 240L351 243L352 243L351 240M378 240L378 243L379 243L378 240z"/>
<path style="fill:#fff8e2; stroke:none;" d="M163 241L164 242L163 241z"/>
<path style="fill:#fde69d; stroke:none;" d="M185 241L186 242L185 241z"/>
<path style="fill:#fcd560; stroke:none;" d="M198 241L199 242L198 241z"/>
<path style="fill:#fff8e2; stroke:none;" d="M199 241L200 242L199 241z"/>
<path style="fill:#fde69d; stroke:none;" d="M213 241L214 242L213 241z"/>
<path style="fill:#fff8e2; stroke:none;" d="M225 241L226 242L225 241M275 241L276 242L275 241z"/>
<path style="fill:#fcd560; stroke:none;" d="M276 241L277 242L276 241M290 241L291 242L290 241z"/>
<path style="fill:#fff8e2; stroke:none;" d="M291 241L292 242L291 241M164 242L165 243L164 242M186 242L187 243L186 242z"/>
<path style="fill:#fde69d; stroke:none;" d="M187 242L188 243L187 242z"/>
<path style="fill:#fcd560; stroke:none;" d="M188 242L189 243L188 242M196 242L197 243L196 242z"/>
<path style="fill:#fde69d; stroke:none;" d="M197 242L198 243L197 242z"/>
<path style="fill:#fff8e2; stroke:none;" d="M214 242L215 243L214 242z"/>
<path style="fill:#fcd560; stroke:none;" d="M215 242L216 243L215 242M222 242L223 243L222 242z"/>
<path style="fill:#fde69d; stroke:none;" d="M223 242L224 243L223 242z"/>
<path style="fill:#fff8e2; stroke:none;" d="M224 242L225 243L224 242M277 242L278 243L277 242z"/>
<path style="fill:#fde69d; stroke:none;" d="M278 242L279 243L278 242z"/>
<path style="fill:#fcd560; stroke:none;" d="M279 242L280 243L279 242M288 242L289 243L288 242z"/>
<path style="fill:#fff8e2; stroke:none;" d="M289 242L290 243L289 242M189.667 243.333L190.333 243.667L189.667 243.333z"/>
<path style="fill:#fde69d; stroke:none;" d="M191.667 243.333L192.333 243.667L191.667 243.333z"/>
<path style="fill:#fff8e2; stroke:none;" d="M193.667 243.333L194.333 243.667L193.667 243.333M216.667 243.333L217.333 243.667L216.667 243.333z"/>
<path style="fill:#fde69d; stroke:none;" d="M218.667 243.333L219.333 243.667L218.667 243.333z"/>
<path style="fill:#fff8e2; stroke:none;" d="M220.667 243.333L221.333 243.667L220.667 243.333M280.667 243.333L281.333 243.667L280.667 243.333z"/>
<path style="fill:#fde69d; stroke:none;" d="M282 243L282 244L285 244L282 243z"/>
<path style="fill:#fff8e2; stroke:none;" d="M285.667 243.333L286.333 243.667L285.667 243.333M181 246L182 247L181 246z"/>
<path style="fill:#fde69d; stroke:none;" d="M182 246L182 247L196 247L182 246z"/>
<path style="fill:#fff8e2; stroke:none;" d="M222 246L223 247L222 246z"/>
<path style="fill:#fde69d; stroke:none;" d="M223 246L223 247L232 247L223 246z"/>
<path style="fill:#fcd560; stroke:none;" d="M181.333 247.667L181.667 248.333L181.333 247.667z"/>
<path style="fill:#fbbe03; stroke:none;" d="M195 247C191.626 247 184.561 245.661 182.175 248.603C178.165 253.549 177.786 266.706 176.116 273C171.231 291.407 165.528 309.643 160.424 328C158.507 334.898 151.65 349.914 155.269 356.772C158.092 362.123 165.927 359.955 168.647 355.891C175.017 346.375 177.141 332.934 179.873 322C182.437 311.743 184.16 301.322 186.424 291C189.531 276.837 193.823 261.408 195 247z"/>
<path style="fill:#fcd560; stroke:none;" d="M195 247L196 248L195 247z"/>
<path style="fill:#fbbe03; stroke:none;" d="M222 247C217.784 265.222 209.824 282.482 206.463 301C205.316 307.319 203.175 317.236 207.589 322.772C215.022 332.095 229.453 322.904 236 317.535C251.098 305.154 263.725 288.063 274.656 272C279.062 265.525 284.598 258.86 286 251C278.314 254.594 273.425 263.443 268.35 270C258.87 282.247 248.982 294.07 238 304.999C234.074 308.907 225.126 319.648 219.133 319.658C212.505 319.669 215.734 305.504 216.275 302C219.195 283.084 226.717 265.513 231 247L222 247z"/>
<path style="fill:#fcd560; stroke:none;" d="M231 247L232 248L231 247z"/>
<path style="fill:#fde69d; stroke:none;" d="M195 248L196 249L195 248z"/>
<path style="fill:#fff8e2; stroke:none;" d="M221 248L222 249L221 248M231 248L232 249L231 248M195 249L196 250L195 249z"/>
<path style="fill:#fcd560; stroke:none;" d="M221 249L222 250L221 249M230 249L231 250L230 249z"/>
<path style="fill:#fff8e2; stroke:none;" d="M180.333 250.667L180.667 251.333L180.333 250.667M220 250L221 251L220 250z"/>
<path style="fill:#fde69d; stroke:none;" d="M230 250L231 251L230 250z"/>
<path style="fill:#fff8e2; stroke:none;" d="M285 250L286 251L285 250z"/>
<path style="fill:#fcd560; stroke:none;" d="M194 251L195 252L194 251z"/>
<path style="fill:#fde69d; stroke:none;" d="M220 251L221 252L220 251z"/>
<path style="fill:#fff8e2; stroke:none;" d="M230 251L231 252L230 251M282 251L280 254L282 251z"/>
<path style="fill:#fcd560; stroke:none;" d="M283 251L284 252L283 251M286 251L287 252L286 251z"/>
<path style="fill:#fde69d; stroke:none;" d="M180 252L181 253L180 252M194 252L195 253L194 252z"/>
<path style="fill:#fcd560; stroke:none;" d="M220 252L221 253L220 252M229 252L230 253L229 252M282 252L283 253L282 252z"/>
<path style="fill:#fde69d; stroke:none;" d="M286 252L287 253L286 252z"/>
<path style="fill:#fcd560; stroke:none;" d="M180.333 253.667L180.667 254.333L180.333 253.667z"/>
<path style="fill:#fff8e2; stroke:none;" d="M194 253L195 254L194 253M219 253L220 254L219 253z"/>
<path style="fill:#fde69d; stroke:none;" d="M229 253L230 254L229 253z"/>
<path style="fill:#fcd560; stroke:none;" d="M281 253L282 254L281 253z"/>
<path style="fill:#fff8e2; stroke:none;" d="M286 253L287 254L286 253z"/>
<path style="fill:#fde69d; stroke:none;" d="M219 254L220 255L219 254z"/>
<path style="fill:#fff8e2; stroke:none;" d="M229 254L230 255L229 254z"/>
<path style="fill:#fcd560; stroke:none;" d="M280 254L281 255L280 254M285 254L286 255L285 254M193 255L194 256L193 255M219 255L220 256L219 255M228 255L229 256L228 255z"/>
<path style="fill:#fde69d; stroke:none;" d="M279 255L280 256L279 255z"/>
<path style="fill:#fff8e2; stroke:none;" d="M285 255L286 256L285 255M179 256L180 257L179 256z"/>
<path style="fill:#fde69d; stroke:none;" d="M193 256L194 257L193 256z"/>
<path style="fill:#fff8e2; stroke:none;" d="M218 256L219 257L218 256z"/>
<path style="fill:#fde69d; stroke:none;" d="M228 256L229 257L228 256z"/>
<path style="fill:#fff8e2; stroke:none;" d="M278 256L279 257L278 256z"/>
<path style="fill:#fcd560; stroke:none;" d="M284 256L285 257L284 256z"/>
<path style="fill:#fde69d; stroke:none;" d="M179 257L180 258L179 257z"/>
<path style="fill:#fff8e2; stroke:none;" d="M193 257L194 258L193 257z"/>
<path style="fill:#fde69d; stroke:none;" d="M218 257L219 258L218 257z"/>
<path style="fill:#fff8e2; stroke:none;" d="M228 257L229 258L228 257M277 257L276 259L277 257M284 257L285 258L284 257z"/>
<path style="fill:#fcd560; stroke:none;" d="M179.333 258.667L179.667 259.333L179.333 258.667M218 258L219 259L218 258M227 258L228 259L227 258M277 258L278 259L277 258z"/>
<path style="fill:#fde69d; stroke:none;" d="M283 258L284 259L283 258z"/>
<path style="fill:#fcd560; stroke:none;" d="M192 259L193 260L192 259z"/>
<path style="fill:#fff8e2; stroke:none;" d="M217 259L218 260L217 259z"/>
<path style="fill:#fde69d; stroke:none;" d="M227 259L228 260L227 259z"/>
<path style="fill:#fcd560; stroke:none;" d="M276 259L277 260L276 259z"/>
<path style="fill:#fff8e2; stroke:none;" d="M283 259L284 260L283 259M178.333 260.667L178.667 261.333L178.333 260.667z"/>
<path style="fill:#fde69d; stroke:none;" d="M192 260L193 261L192 260M217 260L218 261L217 260z"/>
<path style="fill:#fff8e2; stroke:none;" d="M227 260L228 261L227 260z"/>
<path style="fill:#fde69d; stroke:none;" d="M275 260L276 261L275 260M282 260L283 261L282 260z"/>
<path style="fill:#fff8e2; stroke:none;" d="M192.333 261.667L192.667 262.333L192.333 261.667z"/>
<path style="fill:#fcd560; stroke:none;" d="M217 261L218 262L217 261M226 261L227 262L226 261z"/>
<path style="fill:#fff8e2; stroke:none;" d="M274 261L273 263L274 261z"/>
<path style="fill:#fcd560; stroke:none;" d="M281 261L282 262L281 261z"/>
<path style="fill:#fde69d; stroke:none;" d="M178 262L179 263L178 262z"/>
<path style="fill:#fff8e2; stroke:none;" d="M216 262L217 263L216 262z"/>
<path style="fill:#fde69d; stroke:none;" d="M226 262L227 263L226 262z"/>
<path style="fill:#fcd560; stroke:none;" d="M274 262L275 263L274 262z"/>
<path style="fill:#fff8e2; stroke:none;" d="M281 262L282 263L281 262z"/>
<path style="fill:#fcd560; stroke:none;" d="M178.333 263.667L178.667 264.333L178.333 263.667z"/>
<path style="fill:#fde69d; stroke:none;" d="M216 263L217 264L216 263z"/>
<path style="fill:#fff8e2; stroke:none;" d="M226 263L227 264L226 263z"/>
<path style="fill:#fcd560; stroke:none;" d="M273 263L274 264L273 263z"/>
<path style="fill:#fde69d; stroke:none;" d="M280 263L281 264L280 263z"/>
<path style="fill:#fcd560; stroke:none;" d="M191 264L192 265L191 264M216 264L217 265L216 264z"/>
<path style="fill:#fde69d; stroke:none;" d="M272 264L273 265L272 264z"/>
<path style="fill:#fcd560; stroke:none;" d="M279 264L280 265L279 264z"/>
<path style="fill:#fff8e2; stroke:none;" d="M177 265L178 266L177 265z"/>
<path style="fill:#fde69d; stroke:none;" d="M191.333 265.667L191.667 266.333L191.333 265.667z"/>
<path style="fill:#fcd560; stroke:none;" d="M225 265L226 266L225 265z"/>
<path style="fill:#fff8e2; stroke:none;" d="M271 265L272 266L271 265M279 265L280 266L279 265z"/>
<path style="fill:#fde69d; stroke:none;" d="M177 266L178 267L177 266z"/>
<path style="fill:#fff8e2; stroke:none;" d="M215 266L216 267L215 266z"/>
<path style="fill:#fde69d; stroke:none;" d="M225 266L226 267L225 266z"/>
<path style="fill:#fff8e2; stroke:none;" d="M270 266L271 267L270 266z"/>
<path style="fill:#fde69d; stroke:none;" d="M278 266L279 267L278 266z"/>
<path style="fill:#fcd560; stroke:none;" d="M177 267L178 268L177 267z"/>
<path style="fill:#fff8e2; stroke:none;" d="M191 267L192 268L191 267z"/>
<path style="fill:#fcd560; stroke:none;" d="M215 267L216 268L215 267z"/>
<path style="fill:#fff8e2; stroke:none;" d="M225 267L226 268L225 267z"/>
<path style="fill:#fcd560; stroke:none;" d="M270 267L271 268L270 267M277 267L278 268L277 267M224 268L225 269L224 268z"/>
<path style="fill:#fde69d; stroke:none;" d="M269 268L270 269L269 268z"/>
<path style="fill:#fff8e2; stroke:none;" d="M277 268L278 269L277 268M176 269L177 270L176 269z"/>
<path style="fill:#fcd560; stroke:none;" d="M190.333 269.667L190.667 270.333L190.333 269.667z"/>
<path style="fill:#fff8e2; stroke:none;" d="M214 269L215 270L214 269z"/>
<path style="fill:#fde69d; stroke:none;" d="M224 269L225 270L224 269z"/>
<path style="fill:#fff8e2; stroke:none;" d="M268 269L269 270L268 269z"/>
<path style="fill:#fde69d; stroke:none;" d="M276 269L277 270L276 269M176 270L177 271L176 270z"/>
<path style="fill:#fcd560; stroke:none;" d="M214 270L215 271L214 270z"/>
<path style="fill:#fff8e2; stroke:none;" d="M224 270L225 271L224 270M267 270L266 272L267 270z"/>
<path style="fill:#fcd560; stroke:none;" d="M275 270L276 271L275 270M176 271L177 272L176 271z"/>
<path style="fill:#fde69d; stroke:none;" d="M190 271L191 272L190 271z"/>
<path style="fill:#fcd560; stroke:none;" d="M223 271L224 272L223 271M267 271L268 272L267 271z"/>
<path style="fill:#fff8e2; stroke:none;" d="M275 271L276 272L275 271M190.333 272.667L190.667 273.333L190.333 272.667M213 272L214 273L213 272z"/>
<path style="fill:#fde69d; stroke:none;" d="M223 272L224 273L223 272z"/>
<path style="fill:#fcd560; stroke:none;" d="M266 272L267 273L266 272z"/>
<path style="fill:#fde69d; stroke:none;" d="M274 272L275 273L274 272z"/>
<path style="fill:#fff8e2; stroke:none;" d="M175 273L176 274L175 273z"/>
<path style="fill:#fde69d; stroke:none;" d="M213 273L214 274L213 273z"/>
<path style="fill:#fff8e2; stroke:none;" d="M223 273L224 274L223 273z"/>
<path style="fill:#fde69d; stroke:none;" d="M265 273L266 274L265 273z"/>
<path style="fill:#fcd560; stroke:none;" d="M273 273L274 274L273 273M175.333 274.667L175.667 275.333L175.333 274.667M189.333 274.667L189.667 275.333L189.333 274.667M213 274L214 275L213 274z"/>
<path style="fill:#fff8e2; stroke:none;" d="M264 274L265 275L264 274M273 274L274 275L273 274M212 275L213 276L212 275z"/>
<path style="fill:#fcd560; stroke:none;" d="M222 275L223 276L222 275z"/>
<path style="fill:#fff8e2; stroke:none;" d="M263 275L264 276L263 275M272 275L273 276L272 275M174 276L175 277L174 276z"/>
<path style="fill:#fde69d; stroke:none;" d="M189.333 276.667L189.667 277.333L189.333 276.667M212 276L213 277L212 276M222 276L223 277L222 276z"/>
<path style="fill:#fcd560; stroke:none;" d="M263 276L264 277L263 276z"/>
<path style="fill:#fde69d; stroke:none;" d="M271 276L272 277L271 276M174 277L175 278L174 277z"/>
<path style="fill:#fcd560; stroke:none;" d="M212 277L213 278L212 277z"/>
<path style="fill:#fff8e2; stroke:none;" d="M222 277L223 278L222 277z"/>
<path style="fill:#fde69d; stroke:none;" d="M262 277L263 278L262 277z"/>
<path style="fill:#fcd560; stroke:none;" d="M270 277L271 278L270 277z"/>
<path style="fill:#fff8e2; stroke:none;" d="M271 277L272 278L271 277z"/>
<path style="fill:#fcd560; stroke:none;" d="M174 278L175 279L174 278z"/>
<path style="fill:#fff8e2; stroke:none;" d="M189 278L190 279L189 278z"/>
<path style="fill:#fde69d; stroke:none;" d="M261 278L262 279L261 278z"/>
<path style="fill:#fff8e2; stroke:none;" d="M270 278L271 279L270 278M173 279L174 280L173 279M211 279L212 280L211 279z"/>
<path style="fill:#fcd560; stroke:none;" d="M221 279L222 280L221 279z"/>
<path style="fill:#fff8e2; stroke:none;" d="M260 279L261 280L260 279z"/>
<path style="fill:#fde69d; stroke:none;" d="M269 279L270 280L269 279M173 280L174 281L173 280z"/>
<path style="fill:#fcd560; stroke:none;" d="M188.333 280.667L188.667 281.333L188.333 280.667z"/>
<path style="fill:#fde69d; stroke:none;" d="M211 280L212 281L211 280M221 280L222 281L221 280z"/>
<path style="fill:#fff8e2; stroke:none;" d="M259 280L258 282L259 280z"/>
<path style="fill:#fcd560; stroke:none;" d="M268 280L269 281L268 280M173 281L174 282L173 281M211 281L212 282L211 281z"/>
<path style="fill:#fff8e2; stroke:none;" d="M221 281L222 282L221 281z"/>
<path style="fill:#fcd560; stroke:none;" d="M259 281L260 282L259 281z"/>
<path style="fill:#fff8e2; stroke:none;" d="M268 281L269 282L268 281z"/>
<path style="fill:#fde69d; stroke:none;" d="M188 282L189 283L188 282z"/>
<path style="fill:#fff8e2; stroke:none;" d="M210 282L211 283L210 282z"/>
<path style="fill:#fcd560; stroke:none;" d="M220 282L221 283L220 282M258 282L259 283L258 282z"/>
<path style="fill:#fff8e2; stroke:none;" d="M267 282L268 283L267 282M172 283L173 284L172 283M188.333 283.667L188.667 284.333L188.333 283.667z"/>
<path style="fill:#fde69d; stroke:none;" d="M210 283L211 284L210 283M220 283L221 284L220 283M257 283L258 284L257 283M266 283L267 284L266 283M172 284L173 285L172 284z"/>
<path style="fill:#fcd560; stroke:none;" d="M210 284L211 285L210 284z"/>
<path style="fill:#fff8e2; stroke:none;" d="M220.333 284.667L220.667 285.333L220.333 284.667M256 284L257 285L256 284z"/>
<path style="fill:#fcd560; stroke:none;" d="M265 284L264 286L265 284M172 285L173 286L172 285z"/>
<path style="fill:#fff8e2; stroke:none;" d="M255 285L253 288L255 285M265 285L266 286L265 285M171 286L172 287L171 286z"/>
<path style="fill:#fcd560; stroke:none;" d="M187 286L188 287L187 286z"/>
<path style="fill:#fff8e2; stroke:none;" d="M209 286L210 287L209 286z"/>
<path style="fill:#fcd560; stroke:none;" d="M219 286L220 287L219 286M255 286L256 287L255 286z"/>
<path style="fill:#fff8e2; stroke:none;" d="M264 286L265 287L264 286z"/>
<path style="fill:#fde69d; stroke:none;" d="M171 287L172 288L171 287M187 287L188 288L187 287M209 287L210 288L209 287M219 287L220 288L219 287z"/>
<path style="fill:#fcd560; stroke:none;" d="M254 287L255 288L254 287z"/>
<path style="fill:#fff8e2; stroke:none;" d="M263 287L264 288L263 287z"/>
<path style="fill:#fcd560; stroke:none;" d="M171 288L172 289L171 288z"/>
<path style="fill:#fff8e2; stroke:none;" d="M187.333 288.667L187.667 289.333L187.333 288.667z"/>
<path style="fill:#fcd560; stroke:none;" d="M209 288L210 289L209 288z"/>
<path style="fill:#fff8e2; stroke:none;" d="M219.333 288.667L219.667 289.333L219.333 288.667z"/>
<path style="fill:#fde69d; stroke:none;" d="M253 288L254 289L253 288M262 288L263 289L262 288z"/>
<path style="fill:#fff8e2; stroke:none;" d="M170.333 289.667L170.667 290.333L170.333 289.667z"/>
<path style="fill:#fde69d; stroke:none;" d="M252 289L253 290L252 289z"/>
<path style="fill:#fcd560; stroke:none;" d="M261 289L262 290L261 289M186.333 290.667L186.667 291.333L186.333 290.667z"/>
<path style="fill:#fff8e2; stroke:none;" d="M208 290L209 291L208 290z"/>
<path style="fill:#fcd560; stroke:none;" d="M218.333 290.667L218.667 291.333L218.333 290.667z"/>
<path style="fill:#fde69d; stroke:none;" d="M251 290L252 291L251 290z"/>
<path style="fill:#fff8e2; stroke:none;" d="M261 290L262 291L261 290z"/>
<path style="fill:#fcd560; stroke:none;" d="M170 291L171 292L170 291z"/>
<path style="fill:#fde69d; stroke:none;" d="M208 291L209 292L208 291z"/>
<path style="fill:#fff8e2; stroke:none;" d="M250 291L251 292L250 291M260 291L261 292L260 291z"/>
<path style="fill:#fde69d; stroke:none;" d="M186 292L187 293L186 292z"/>
<path style="fill:#fcd560; stroke:none;" d="M208 292L209 293L208 292z"/>
<path style="fill:#fde69d; stroke:none;" d="M218 292L219 293L218 292z"/>
<path style="fill:#fff8e2; stroke:none;" d="M249 292L250 293L249 292z"/>
<path style="fill:#fde69d; stroke:none;" d="M259 292L260 293L259 292z"/>
<path style="fill:#fff8e2; stroke:none;" d="M169 293L170 294L169 293M186.333 293.667L186.667 294.333L186.333 293.667M218 293L219 294L218 293M248 293L245 297L248 293z"/>
<path style="fill:#fde69d; stroke:none;" d="M258 293L259 294L258 293M169 294L170 295L169 294z"/>
<path style="fill:#fff8e2; stroke:none;" d="M207 294L208 295L207 294z"/>
<path style="fill:#fcd560; stroke:none;" d="M248 294L249 295L248 294M257 294L256 296L257 294M169 295L170 296L169 295M185.333 295.667L185.667 296.333L185.333 295.667z"/>
<path style="fill:#fde69d; stroke:none;" d="M207 295L208 296L207 295z"/>
<path style="fill:#fcd560; stroke:none;" d="M217.333 295.667L217.667 296.333L217.333 295.667M247 295L248 296L247 295z"/>
<path style="fill:#fff8e2; stroke:none;" d="M257 295L258 296L257 295M168.333 296.667L168.667 297.333L168.333 296.667z"/>
<path style="fill:#fcd560; stroke:none;" d="M207 296L208 297L207 296M246 296L247 297L246 296z"/>
<path style="fill:#fff8e2; stroke:none;" d="M256 296L257 297L256 296z"/>
<path style="fill:#fde69d; stroke:none;" d="M185 297L186 298L185 297M217 297L218 298L217 297M245 297L246 298L245 297z"/>
<path style="fill:#fff8e2; stroke:none;" d="M255 297L256 298L255 297z"/>
<path style="fill:#fcd560; stroke:none;" d="M168.333 298.667L168.667 299.333L168.333 298.667z"/>
<path style="fill:#fff8e2; stroke:none;" d="M185.333 298.667L185.667 299.333L185.333 298.667M206 298L207 299L206 298M217 298L218 299L217 298z"/>
<path style="fill:#fde69d; stroke:none;" d="M244 298L245 299L244 298M254 298L255 299L254 298M206 299L207 300L206 299M243 299L244 300L243 299M253 299L254 300L253 299z"/>
<path style="fill:#fff8e2; stroke:none;" d="M167 300L168 301L167 300z"/>
<path style="fill:#fcd560; stroke:none;" d="M184.333 300.667L184.667 301.333L184.333 300.667M206 300L207 301L206 300M216.333 300.667L216.667 301.333L216.333 300.667z"/>
<path style="fill:#fde69d; stroke:none;" d="M242 300L243 301L242 300z"/>
<path style="fill:#fcd560; stroke:none;" d="M252 300L250 303L252 300z"/>
<path style="fill:#fde69d; stroke:none;" d="M167 301L168 302L167 301M241 301L242 302L241 301z"/>
<path style="fill:#fff8e2; stroke:none;" d="M252 301L253 302L252 301z"/>
<path style="fill:#fcd560; stroke:none;" d="M167 302L168 303L167 302z"/>
<path style="fill:#fde69d; stroke:none;" d="M184 302L185 303L184 302z"/>
<path style="fill:#fff8e2; stroke:none;" d="M205.333 302.667L205.667 303.333L205.333 302.667z"/>
<path style="fill:#fde69d; stroke:none;" d="M216.333 302.667L216.667 303.333L216.333 302.667M240 302L241 303L240 302z"/>
<path style="fill:#fff8e2; stroke:none;" d="M251 302L252 303L251 302M184.333 303.667L184.667 304.333L184.333 303.667z"/>
<path style="fill:#fde69d; stroke:none;" d="M239 303L240 304L239 303z"/>
<path style="fill:#fff8e2; stroke:none;" d="M250 303L251 304L250 303M166 304L167 305L166 304z"/>
<path style="fill:#fde69d; stroke:none;" d="M205 304L206 305L205 304z"/>
<path style="fill:#fff8e2; stroke:none;" d="M216.333 304.667L216.667 305.333L216.333 304.667z"/>
<path style="fill:#fde69d; stroke:none;" d="M238 304L239 305L238 304z"/>
<path style="fill:#fff8e2; stroke:none;" d="M249 304L250 305L249 304z"/>
<path style="fill:#fde69d; stroke:none;" d="M166 305L167 306L166 305z"/>
<path style="fill:#fcd560; stroke:none;" d="M183.333 305.667L183.667 306.333L183.333 305.667M205 305L205 309L206 309L205 305z"/>
<path style="fill:#fde69d; stroke:none;" d="M237 305L238 306L237 305z"/>
<path style="fill:#fff8e2; stroke:none;" d="M248 305L249 306L248 305z"/>
<path style="fill:#fcd560; stroke:none;" d="M166 306L167 307L166 306z"/>
<path style="fill:#fde69d; stroke:none;" d="M236 306L237 307L236 306z"/>
<path style="fill:#fff8e2; stroke:none;" d="M247 306L248 307L247 306M165 307L166 308L165 307z"/>
<path style="fill:#fde69d; stroke:none;" d="M183 307L184 308L183 307z"/>
<path style="fill:#fcd560; stroke:none;" d="M215 307L215 310L216 310L215 307z"/>
<path style="fill:#fde69d; stroke:none;" d="M235 307L236 308L235 307M246 307L247 308L246 307M165 308L166 309L165 308z"/>
<path style="fill:#fff8e2; stroke:none;" d="M183.333 308.667L183.667 309.333L183.333 308.667z"/>
<path style="fill:#fde69d; stroke:none;" d="M234 308L235 309L234 308M245 308L246 309L245 308z"/>
<path style="fill:#fcd560; stroke:none;" d="M165 309L166 310L165 309z"/>
<path style="fill:#fff8e2; stroke:none;" d="M232 309L230 312L232 309z"/>
<path style="fill:#fde69d; stroke:none;" d="M233 309L234 310L233 309M244 309L245 310L244 309z"/>
<path style="fill:#fcd560; stroke:none;" d="M182.333 310.667L182.667 311.333L182.333 310.667z"/>
<path style="fill:#fde69d; stroke:none;" d="M215.333 310.667L215.667 311.333L215.333 310.667z"/>
<path style="fill:#fcd560; stroke:none;" d="M232 310L233 311L232 310z"/>
<path style="fill:#fde69d; stroke:none;" d="M243 310L244 311L243 310z"/>
<path style="fill:#fff8e2; stroke:none;" d="M164 311L165 312L164 311z"/>
<path style="fill:#fcd560; stroke:none;" d="M231 311L232 312L231 311z"/>
<path style="fill:#fde69d; stroke:none;" d="M242 311L243 312L242 311M164 312L165 313L164 312M182 312L183 313L182 312z"/>
<path style="fill:#fff8e2; stroke:none;" d="M215.333 312.667L215.667 313.333L215.333 312.667M229 312L230 313L229 312z"/>
<path style="fill:#fde69d; stroke:none;" d="M241 312L242 313L241 312z"/>
<path style="fill:#fcd560; stroke:none;" d="M164 313L165 314L164 313z"/>
<path style="fill:#fff8e2; stroke:none;" d="M182 313L183 314L182 313z"/>
<path style="fill:#fde69d; stroke:none;" d="M228 313L229 314L228 313M240 313L241 314L240 313z"/>
<path style="fill:#fff8e2; stroke:none;" d="M163.333 314.667L163.667 315.333L163.333 314.667z"/>
<path style="fill:#fde69d; stroke:none;" d="M215.333 314.667L215.667 315.333L215.333 314.667z"/>
<path style="fill:#fff8e2; stroke:none;" d="M226 314L225 316L226 314z"/>
<path style="fill:#fde69d; stroke:none;" d="M227 314L228 315L227 314M239 314L240 315L239 314z"/>
<path style="fill:#fcd560; stroke:none;" d="M181 315L182 316L181 315M226 315L227 316L226 315z"/>
<path style="fill:#fde69d; stroke:none;" d="M238 315L239 316L238 315z"/>
<path style="fill:#fcd560; stroke:none;" d="M163.333 316.667L163.667 317.333L163.333 316.667z"/>
<path style="fill:#fde69d; stroke:none;" d="M181 316L182 317L181 316z"/>
<path style="fill:#fcd560; stroke:none;" d="M215 316L216 317L215 316z"/>
<path style="fill:#fff8e2; stroke:none;" d="M224 316L225 317L224 316M237 316L238 317L237 316M181.333 317.667L181.667 318.333L181.333 317.667z"/>
<path style="fill:#fcd560; stroke:none;" d="M205.333 317.667L205.667 318.333L205.333 317.667z"/>
<path style="fill:#fde69d; stroke:none;" d="M223 317L224 318L223 317z"/>
<path style="fill:#fff8e2; stroke:none;" d="M236 317L237 318L236 317M162 318L163 319L162 318M216 318L217 319L216 318M221 318L220 320L221 318z"/>
<path style="fill:#fcd560; stroke:none;" d="M222 318L223 319L222 318M234 318L233 320L234 318z"/>
<path style="fill:#fff8e2; stroke:none;" d="M235 318L236 319L235 318z"/>
<path style="fill:#fde69d; stroke:none;" d="M162 319L163 320L162 319z"/>
<path style="fill:#fcd560; stroke:none;" d="M180 319L181 320L180 319z"/>
<path style="fill:#fde69d; stroke:none;" d="M205 319L206 320L205 319z"/>
<path style="fill:#fcd560; stroke:none;" d="M216 319L217 320L216 319M221 319L222 320L221 319z"/>
<path style="fill:#fff8e2; stroke:none;" d="M234 319L235 320L234 319z"/>
<path style="fill:#fcd560; stroke:none;" d="M162 320L163 321L162 320z"/>
<path style="fill:#fde69d; stroke:none;" d="M180.333 320.667L180.667 321.333L180.333 320.667z"/>
<path style="fill:#fff8e2; stroke:none;" d="M205 320L206 321L205 320M217.667 320.333L218.333 320.667L217.667 320.333z"/>
<path style="fill:#fcd560; stroke:none;" d="M219 320L220 321L219 320z"/>
<path style="fill:#fde69d; stroke:none;" d="M232 320L233 321L232 320z"/>
<path style="fill:#fcd560; stroke:none;" d="M230 321L231 322L230 321z"/>
<path style="fill:#fff8e2; stroke:none;" d="M231 321L232 322L231 321M161 322L162 323L161 322M180 322L181 323L180 322z"/>
<path style="fill:#fde69d; stroke:none;" d="M206 322L207 323L206 322M229 322L230 323L229 322z"/>
<path style="fill:#fff8e2; stroke:none;" d="M230 322L231 323L230 322z"/>
<path style="fill:#fde69d; stroke:none;" d="M161 323L162 324L161 323z"/>
<path style="fill:#fcd560; stroke:none;" d="M179.333 323.667L179.667 324.333L179.333 323.667M207 323L209 325L207 323M227 323L228 324L227 323z"/>
<path style="fill:#fff8e2; stroke:none;" d="M228 323L229 324L228 323z"/>
<path style="fill:#fcd560; stroke:none;" d="M161 324L162 325L161 324z"/>
<path style="fill:#fff8e2; stroke:none;" d="M207 324L208 325L207 324z"/>
<path style="fill:#fde69d; stroke:none;" d="M226 324L227 325L226 324z"/>
<path style="fill:#fff8e2; stroke:none;" d="M160 325L161 326L160 325z"/>
<path style="fill:#fde69d; stroke:none;" d="M179 325L180 326L179 325M209 325L210 326L209 325z"/>
<path style="fill:#fcd560; stroke:none;" d="M210 325L211 326L210 325M223 325L224 326L223 325z"/>
<path style="fill:#fde69d; stroke:none;" d="M224 325L225 326L224 325z"/>
<path style="fill:#fff8e2; stroke:none;" d="M225 325L226 326L225 325z"/>
<path style="fill:#fde69d; stroke:none;" d="M160 326L161 327L160 326z"/>
<path style="fill:#fff8e2; stroke:none;" d="M179 326L180 327L179 326M211 326L212 327L211 326z"/>
<path style="fill:#fde69d; stroke:none;" d="M212 326L213 327L212 326z"/>
<path style="fill:#fcd560; stroke:none;" d="M213.667 326.333L214.333 326.667L213.667 326.333M217 326L217 327L220 327L217 326z"/>
<path style="fill:#fde69d; stroke:none;" d="M220.667 326.333L221.333 326.667L220.667 326.333z"/>
<path style="fill:#fff8e2; stroke:none;" d="M222 326L223 327L222 326z"/>
<path style="fill:#fcd560; stroke:none;" d="M160 327L161 328L160 327M178.333 327.667L178.667 328.333L178.333 327.667z"/>
<path style="fill:#fff8e2; stroke:none;" d="M159 329L160 330L159 329M178.333 329.667L178.667 330.333L178.333 329.667z"/>
<path style="fill:#fde69d; stroke:none;" d="M159 330L160 331L159 330z"/>
<path style="fill:#fcd560; stroke:none;" d="M159 331L160 332L159 331M177 331L178 332L177 331z"/>
<path style="fill:#fde69d; stroke:none;" d="M177 332L178 333L177 332z"/>
<path style="fill:#fff8e2; stroke:none;" d="M158 333L159 334L158 333M177 333L178 334L177 333z"/>
<path style="fill:#fde69d; stroke:none;" d="M158 334L159 335L158 334z"/>
<path style="fill:#fcd560; stroke:none;" d="M158 335L159 336L158 335M176 335L177 336L176 335z"/>
<path style="fill:#fff8e2; stroke:none;" d="M157 336L158 337L157 336z"/>
<path style="fill:#fde69d; stroke:none;" d="M176 336L177 337L176 336M157 337L158 338L157 337z"/>
<path style="fill:#fff8e2; stroke:none;" d="M176 337L177 338L176 337z"/>
<path style="fill:#fcd560; stroke:none;" d="M157 338L158 339L157 338M175 338L176 339L175 338z"/>
<path style="fill:#fde69d; stroke:none;" d="M175 339L176 340L175 339z"/>
<path style="fill:#fff8e2; stroke:none;" d="M156 340L157 341L156 340M175 340L176 341L175 340z"/>
<path style="fill:#fde69d; stroke:none;" d="M156 341L157 342L156 341z"/>
<path style="fill:#fcd560; stroke:none;" d="M174 341L175 342L174 341M156 342L157 343L156 342z"/>
<path style="fill:#fde69d; stroke:none;" d="M174 342L175 343L174 342z"/>
<path style="fill:#fff8e2; stroke:none;" d="M155 343L156 344L155 343M174 343L175 344L174 343z"/>
<path style="fill:#fde69d; stroke:none;" d="M155 344L156 345L155 344z"/>
<path style="fill:#fcd560; stroke:none;" d="M173 344L174 345L173 344M155.333 345.667L155.667 346.333L155.333 345.667z"/>
<path style="fill:#fde69d; stroke:none;" d="M173 345L174 346L173 345z"/>
<path style="fill:#fff8e2; stroke:none;" d="M173 346L174 347L173 346z"/>
<path style="fill:#fcd560; stroke:none;" d="M172 347L173 348L172 347z"/>
<path style="fill:#fff8e2; stroke:none;" d="M154 348L155 349L154 348z"/>
<path style="fill:#fde69d; stroke:none;" d="M172 348L173 349L172 348M154.333 349.667L154.667 350.333L154.333 349.667z"/>
<path style="fill:#fff8e2; stroke:none;" d="M172 349L173 350L172 349z"/>
<path style="fill:#fde69d; stroke:none;" d="M171 350L172 351L171 350z"/>
<path style="fill:#fcd560; stroke:none;" d="M154 351L154 354L155 354L154 351z"/>
<path style="fill:#fff8e2; stroke:none;" d="M171 351L172 352L171 351z"/>
<path style="fill:#fcd560; stroke:none;" d="M170 352L171 353L170 352z"/>
<path style="fill:#fff8e2; stroke:none;" d="M170 353L171 354L170 353z"/>
<path style="fill:#fcd560; stroke:none;" d="M169 354L170 355L169 354z"/>
<path style="fill:#fde69d; stroke:none;" d="M169 355L170 356L169 355z"/>
<path style="fill:#fcd560; stroke:none;" d="M154 356L155 357L154 356M168 356L169 357L168 356z"/>
<path style="fill:#fde69d; stroke:none;" d="M154 357L155 358L154 357z"/>
<path style="fill:#fff8e2; stroke:none;" d="M168 357L169 358L168 357z"/>
<path style="fill:#fcd560; stroke:none;" d="M155 358L156 359L155 358z"/>
<path style="fill:#fff8e2; stroke:none;" d="M167 358L168 359L167 358z"/>
<path style="fill:#fde69d; stroke:none;" d="M156 359L157 360L156 359z"/>
<path style="fill:#fcd560; stroke:none;" d="M157 359L158 360L157 359M165 359L166 360L165 359z"/>
<path style="fill:#fff8e2; stroke:none;" d="M166 359L167 360L166 359M158 360L158 361L161 361L158 360z"/>
<path style="fill:#fde69d; stroke:none;" d="M161.667 360.333L162.333 360.667L161.667 360.333z"/>
<path style="fill:#fff8e2; stroke:none;" d="M163.667 360.333L164.333 360.667L163.667 360.333z"/>
</svg>
